<svg width="44" height="29" viewBox="0 0 44 29" fill="none" xmlns="http://www.w3.org/2000/svg">
<path d="M14.3269 21.4979C18.3025 21.4979 21.5253 18.2751 21.5253 14.2995C21.5253 10.3239 18.3025 7.10107 14.3269 7.10107C10.3513 7.10107 7.12848 10.3239 7.12848 14.2995C7.12848 18.2751 10.3513 21.4979 14.3269 21.4979Z" fill="#D1EFFF"/>
<path d="M43.0511 19.6888C42.9399 19.6327 42.9569 19.5766 43.0511 19.5205V19.6888Z" fill="black"/>
<path d="M43.0521 18.0028C42.9619 17.9767 42.9789 17.9026 42.9719 17.8325C42.7882 16.111 42.1134 14.4788 41.0276 13.1304C38.8739 10.4778 36.6911 7.85027 34.5164 5.21673C33.4816 3.96457 32.4979 2.66333 31.3769 1.49331C30.7744 0.826976 29.9876 0.354617 29.1162 0.136145C28.2448 -0.0823257 27.3281 -0.0370705 26.4825 0.266191C25.6208 0.510601 24.8468 0.995749 24.2511 1.66467C23.6555 2.3336 23.2629 3.15855 23.1197 4.04271C23.0135 4.87674 23.0179 5.72115 23.1328 6.55404C23.1428 6.75939 23.1107 6.84955 22.8713 6.84554C21.9905 6.83085 21.1079 6.83085 20.2237 6.84554C19.9713 6.84554 19.9232 6.7624 19.9402 6.53501C19.9833 6.03414 20.0193 5.53328 20.0304 5.0254C20.0526 4.03985 19.7756 3.07069 19.2359 2.24575C18.6962 1.42081 17.9192 0.778818 17.0072 0.40443C16.1056 0.020164 15.1075 -0.0777121 14.1484 0.12404C13.1893 0.325791 12.3154 0.81743 11.6449 1.53238C10.6783 2.58119 9.80377 3.71314 8.89019 4.81103C8.86497 4.84466 8.84351 4.88094 8.82612 4.91922C8.73969 5.04965 8.70696 5.20843 8.73477 5.36241C8.76258 5.51639 8.84871 5.65367 8.9753 5.74564C9.0867 5.84669 9.23373 5.89943 9.38396 5.8923C9.5342 5.88516 9.67541 5.81873 9.77673 5.70758C9.98916 5.48447 10.1897 5.25042 10.3777 5.00637C10.5345 4.79303 10.7325 4.61319 10.9598 4.47746C12.118 3.87106 13.4587 3.71172 14.7268 4.0298C15.9949 4.34789 17.1018 5.12117 17.8366 6.20243C18.2855 6.74563 18.5428 7.42158 18.5689 8.12575C18.5058 9.52816 18.4077 10.9216 18.3205 12.319C18.2744 13.0653 18.2203 13.8105 18.1692 14.5648C15.3724 10.1082 11.4576 8.55448 6.35384 9.90581C6.45401 9.77959 6.51104 9.69045 6.58116 9.6053C7.10673 8.96754 7.63271 8.33043 8.15895 7.694C8.26495 7.58966 8.33216 7.45226 8.34947 7.30454C8.36677 7.15681 8.3331 7.00761 8.25409 6.8816C8.19688 6.77629 8.10824 6.69148 8.00047 6.63904C7.89271 6.58659 7.77125 6.56914 7.65307 6.5891C7.43218 6.63871 7.23841 6.7705 7.11112 6.95773C6.34581 7.88734 5.57142 8.80791 4.80711 9.74353C3.78334 11.0037 2.65944 12.1887 1.74286 13.528C0.450185 15.3498 -0.155266 17.5706 0.0339851 19.7963C0.223237 22.022 1.19493 24.1087 2.77663 25.686C3.79825 26.775 5.07032 27.5981 6.48223 28.0839C7.89414 28.5697 9.40323 28.7036 10.8786 28.4738C12.1619 28.3192 13.3985 27.8969 14.5084 27.2343C15.6183 26.5717 16.5767 25.6835 17.3217 24.6272C17.3915 24.5184 17.4895 24.4305 17.6052 24.3728C17.7209 24.3151 17.85 24.2898 17.9789 24.2996C20.1215 24.3136 22.2662 24.3417 24.4079 24.2886C24.7454 24.2216 25.0957 24.2673 25.4047 24.4186C25.7138 24.5699 25.9647 24.8184 26.1189 25.126C26.1554 25.1862 26.2006 25.2405 26.2531 25.2873C27.3229 26.5195 28.6915 27.4558 30.2275 28.0064C31.7635 28.5571 33.4153 28.7036 35.0242 28.4317C36.9456 28.1071 38.7238 27.2086 40.1249 25.8544C41.5261 24.5003 42.4847 22.7538 42.8748 20.8447C42.8677 20.585 42.9289 20.328 43.0521 20.0994V19.6787C43.0399 19.6683 43.03 19.6554 43.0232 19.6409C43.0165 19.6264 43.013 19.6105 43.013 19.5945C43.013 19.5785 43.0165 19.5627 43.0232 19.5481C43.03 19.5336 43.0399 19.5207 43.0521 19.5104V18.0028ZM9.62143 27.3048C7.42033 27.2983 5.31076 26.4234 3.75096 24.8704C2.19117 23.3174 1.30724 21.2116 1.29116 19.0105C1.29527 16.8162 2.16437 14.7119 3.71 13.1543C5.25563 11.5966 7.35308 10.7113 9.54733 10.6902C11.7556 10.6806 13.8775 11.5477 15.447 13.1011C17.0166 14.6545 17.9056 16.7672 17.9188 18.9754C17.9144 21.1773 17.0402 23.2882 15.4868 24.8486C13.9333 26.409 11.8263 27.2925 9.62449 27.3068L9.62143 27.3048ZM26.6357 1.55141C27.3425 1.28407 28.1159 1.24747 28.8448 1.44688C29.5736 1.64628 30.2205 2.07143 30.6928 2.66133C29.4992 2.47813 28.2782 2.61945 27.158 3.07046C26.0378 3.52148 25.0596 4.26558 24.3259 5.22475C24.268 4.44668 24.4603 3.67049 24.8748 3.00948C25.2893 2.34846 25.9042 1.83725 26.6298 1.55042L26.6357 1.55141ZM19.7379 10.003C19.7839 9.46104 19.819 8.9171 19.838 8.37317C19.844 8.16381 19.9222 8.12274 20.1135 8.12374C21.0625 8.13243 22.0115 8.13243 22.9605 8.12374C23.1608 8.12374 23.2249 8.17282 23.2319 8.37717C23.25 8.92078 23.2833 9.46404 23.3321 10.007C23.3511 10.2163 23.2839 10.2714 23.0836 10.2674C22.5547 10.2564 22.0229 10.2674 21.493 10.2674C20.9921 10.2674 20.4912 10.2594 19.9854 10.2674C19.775 10.2755 19.7188 10.2093 19.7379 10.007V10.003ZM19.5206 13.3818C19.5667 12.8529 19.5957 12.321 19.6207 11.7891C19.6287 11.5887 19.6998 11.5286 19.8992 11.5306C20.9904 11.5393 22.0823 11.5393 23.1748 11.5306C23.3752 11.5306 23.4463 11.5887 23.4544 11.788C23.4754 12.319 23.5044 12.8509 23.5545 13.3808C23.5745 13.6042 23.5104 13.6693 23.285 13.6633C22.697 13.6483 22.109 13.6633 21.521 13.6633C20.933 13.6633 20.373 13.6533 19.799 13.6633C19.5736 13.6633 19.5075 13.6052 19.5275 13.3808L19.5206 13.3818ZM12.3953 2.66333C12.864 2.06896 13.5113 1.64102 14.2418 1.44261C14.9723 1.24421 15.7472 1.28585 16.4522 1.56142C17.17 1.84636 17.7775 2.35425 18.185 3.0103C18.5926 3.66635 18.7787 4.43591 18.7161 5.20571C17.9857 4.2558 17.0143 3.51879 15.9028 3.07118C14.7912 2.62358 13.5801 2.4817 12.3953 2.66032V2.66333ZM18.3175 23.0264C18.4657 22.6167 18.6179 22.225 18.7471 21.8364C19.0768 20.6199 19.2452 19.3653 19.248 18.1049C19.3121 17.1553 19.3712 16.2017 19.4153 15.253C19.4253 15.0306 19.4724 14.9415 19.7159 14.9445C20.9179 14.9578 22.1224 14.9578 23.3291 14.9445C23.5655 14.9445 23.6295 15.0106 23.6416 15.245C23.7147 16.6574 23.8069 18.0689 23.891 19.4803C23.9456 20.5294 24.1718 21.5625 24.5603 22.5386C24.6489 22.6869 24.7014 22.854 24.7135 23.0264H18.3175ZM24.7285 12.0916C24.6494 10.8204 24.5823 9.5492 24.4931 8.27901C24.4914 7.5329 24.7456 6.80877 25.2134 6.22747C25.9487 5.13059 27.0664 4.34712 28.3483 4.03002C29.6302 3.71292 30.9844 3.88494 32.1463 4.51251C32.2722 4.57301 32.3846 4.65817 32.4769 4.76294C33.8386 6.41512 35.2016 8.0653 36.5659 9.71348C36.5982 9.73916 36.6213 9.77454 36.632 9.8144C36.6426 9.85427 36.6402 9.89651 36.625 9.93486C34.4442 9.18006 32.0645 9.23589 29.9214 10.0921C27.749 10.9599 25.9645 12.5855 24.8987 14.668C24.8366 13.7394 24.7806 12.917 24.7305 12.0926L24.7285 12.0916ZM33.4605 27.3068C31.2583 27.2973 29.149 26.4183 27.5919 24.8611C26.0347 23.3039 25.1557 21.1946 25.1462 18.9925C25.1539 16.7913 26.0318 14.6826 27.5886 13.1264C29.1453 11.5703 31.2543 10.693 33.4555 10.6862C35.6568 10.6928 37.7663 11.5695 39.3239 13.1251C40.8814 14.6808 41.7606 16.7891 41.7699 18.9905C41.7591 21.1922 40.8797 23.3008 39.3228 24.8577C37.7659 26.4146 35.6573 27.294 33.4555 27.3048L33.4605 27.3068Z" fill="black"/>
<path d="M9.60563 12.3872C7.85749 12.3925 6.18235 13.0886 4.94538 14.3239C3.7084 15.5592 3.00987 17.2334 3.00221 18.9816C2.99875 20.7295 3.68902 22.4074 4.92141 23.6469C6.15381 24.8864 7.82764 25.5863 9.57555 25.593C11.3301 25.5964 13.0143 24.9032 14.2579 23.6655C15.5016 22.4279 16.2029 20.7471 16.208 18.9926C16.1982 17.2443 15.4997 15.5702 14.2637 14.3337C13.0277 13.0971 11.354 12.3977 9.60563 12.3872ZM9.62972 24.3168C8.92929 24.3207 8.23492 24.1862 7.58665 23.9209C6.93838 23.6556 6.34899 23.2649 5.85222 22.7711C5.35542 22.2774 4.96098 21.6905 4.69177 21.0439C4.42256 20.3974 4.28384 19.704 4.28347 19.0036C4.28295 18.3033 4.42036 17.6097 4.68798 16.9625C4.9556 16.3152 5.34817 15.7271 5.84317 15.2317C6.33816 14.7362 6.92588 14.3431 7.57283 14.0749C8.21979 13.8067 8.91323 13.6685 9.61358 13.6684C11.0216 13.6748 12.3701 14.2377 13.3647 15.2343C14.3593 16.231 14.9194 17.5805 14.9228 18.9886C14.9244 20.3953 14.3688 21.7453 13.3776 22.7435C12.3864 23.7416 11.0403 24.3066 9.63364 24.3148L9.62972 24.3168Z" fill="black"/>
<path d="M33.4597 12.3872C31.7116 12.3972 30.0378 13.0959 28.8015 14.3319C27.5651 15.5679 26.8659 17.2414 26.8553 18.9896C26.8599 20.7442 27.5609 22.4252 28.8044 23.6631C30.0479 24.901 31.7322 25.5944 33.4868 25.591C35.2348 25.5843 36.9087 24.8845 38.1413 23.645C39.3738 22.4055 40.0643 20.7276 40.0611 18.9796C40.0526 17.2322 39.3541 15.559 38.1177 14.3242C36.8813 13.0895 35.2071 12.3933 33.4597 12.3872ZM33.4597 24.3168C32.7594 24.3165 32.0659 24.178 31.4192 23.9092C30.7726 23.6403 30.1853 23.2464 29.6912 22.7501C29.1971 22.2537 28.8058 21.6647 28.5399 21.0168C28.274 20.3689 28.1386 19.6749 28.1415 18.9746C28.1481 17.5666 28.7111 16.2184 29.7077 15.2238C30.7043 14.2293 32.0537 13.6691 33.4617 13.6654C34.1621 13.6672 34.8552 13.807 35.5015 14.0769C36.1478 14.3467 36.7345 14.7413 37.2282 15.2381C37.7219 15.7349 38.1128 16.3241 38.3785 16.9722C38.6442 17.6202 38.7797 18.3142 38.7769 19.0146C38.7721 20.4212 38.21 21.7685 37.2138 22.7614C36.2175 23.7543 34.8683 24.3118 33.4617 24.3118L33.4597 24.3168Z" fill="black"/>
<path d="M21.5261 17.083C21.0176 17.0888 20.5318 17.2946 20.1739 17.6559C19.816 18.0171 19.6149 18.5048 19.6138 19.0133C19.6241 19.5141 19.8281 19.9914 20.183 20.3449C20.538 20.6983 21.0162 20.9004 21.517 20.9086C22.0252 20.9076 22.5128 20.7071 22.8746 20.3501C23.2364 19.9932 23.4435 19.5085 23.4514 19.0003C23.4466 18.4919 23.2421 18.0058 22.8818 17.647C22.5215 17.2882 22.0345 17.0856 21.5261 17.083ZM21.5151 19.6204C21.4312 19.6188 21.3485 19.6002 21.2721 19.5658C21.1956 19.5313 21.1271 19.4818 21.0703 19.42C21.0133 19.3592 20.969 19.2875 20.9402 19.2092C20.9115 19.1309 20.8989 19.0476 20.903 18.9643C20.914 18.8034 20.984 18.6523 21.0995 18.5399C21.2151 18.4275 21.3681 18.3617 21.5291 18.3552C21.6973 18.3596 21.857 18.4291 21.975 18.5491C22.0929 18.6691 22.1597 18.8301 22.1612 18.9983C22.1611 19.0816 22.1443 19.164 22.1115 19.2406C22.0788 19.3172 22.0309 19.3864 21.9708 19.4441C21.9104 19.5017 21.839 19.5464 21.7608 19.5757C21.6827 19.6049 21.5994 19.6181 21.516 19.6144L21.5151 19.6204Z" fill="black"/>
</svg>
