<svg width="44" height="27" viewBox="0 0 44 27" fill="none" xmlns="http://www.w3.org/2000/svg">
<path d="M11.3095 20.0953C14.7664 20.0953 17.5688 17.2929 17.5688 13.836C17.5688 10.379 14.7664 7.57666 11.3095 7.57666C7.85256 7.57666 5.05017 10.379 5.05017 13.836C5.05017 17.2929 7.85256 20.0953 11.3095 20.0953Z" fill="#D1EFFF"/>
<path d="M12.6886 3.53293H8.06423C7.92433 3.53947 7.78414 3.53364 7.64527 3.5155C7.48244 3.49879 7.3321 3.42069 7.22482 3.29706C7.11754 3.17344 7.06138 3.01359 7.06777 2.85003C7.05217 2.68602 7.10012 2.52228 7.20175 2.39261C7.30338 2.26294 7.45091 2.17724 7.6139 2.1532C7.73795 2.13036 7.86418 2.1216 7.9902 2.12707C11.1294 2.12707 14.2684 2.12707 17.407 2.12707C17.5329 2.12192 17.659 2.1298 17.7833 2.15058C17.9456 2.17153 18.0936 2.25396 18.1968 2.38087C18.3001 2.50778 18.3507 2.66948 18.3382 2.83261C18.3485 2.99592 18.2959 3.157 18.1913 3.28283C18.0867 3.40866 17.9379 3.48973 17.7755 3.50941C17.6368 3.52972 17.4965 3.53613 17.3565 3.52857L12.6886 3.53293Z" fill="black"/>
<path d="M16.6082 1.41544C15.5873 1.41544 14.5656 1.41544 13.5448 1.41544C13.0317 1.41544 12.7199 1.15412 12.7042 0.738632C12.6885 0.323145 13.0204 0.00609729 13.5404 0.00435521C15.5688 -0.00145174 17.5969 -0.00145174 19.6246 0.00435521C20.1612 0.00435521 20.467 0.286551 20.4556 0.733395C20.4452 1.16456 20.1507 1.4137 19.629 1.41544C18.6221 1.41805 17.6151 1.41544 16.6082 1.41544Z" fill="black"/>
<path d="M42.9815 18.1323C42.8143 16.855 42.2688 15.6568 41.415 14.6921C40.5613 13.7273 39.4384 13.0401 38.1908 12.7188C37.0766 12.4951 35.9355 12.4364 34.8042 12.5446C34.2459 12.5816 33.6872 12.4791 33.1784 12.2463C32.6696 12.0135 32.2267 11.6577 31.8897 11.2111C30.3888 9.40686 28.5173 7.94675 26.4021 6.92988C25.074 6.19731 23.6006 5.76695 22.087 5.66949C17.0298 5.61984 11.9725 5.64685 6.91522 5.65294C6.60944 5.62824 6.3019 5.67013 6.01387 5.77574C5.72584 5.88135 5.46416 6.04815 5.24682 6.26466C5.02948 6.48118 4.86165 6.74224 4.75495 7.02987C4.64824 7.31749 4.6052 7.62483 4.62874 7.93071C4.63572 8.1104 4.5772 8.28653 4.46409 8.42633C2.59657 10.7712 0.833587 13.1796 0 16.1246V19.236C0.00848369 19.4189 0.0359447 19.6005 0.0818994 19.7777C0.331888 21.1278 0.737789 22.1557 2.02606 22.6975C2.10681 22.7326 2.1789 22.7849 2.23728 22.8508C2.29566 22.9167 2.33892 22.9946 2.36402 23.079C2.68413 23.8669 3.205 24.5572 3.87482 25.0812C4.54463 25.6053 5.34002 25.9447 6.18179 26.0658C7.02355 26.187 7.88238 26.0856 8.67277 25.7717C9.46316 25.4578 10.1575 24.9423 10.6868 24.2767C10.7484 24.1877 10.8319 24.1161 10.9293 24.069C11.0267 24.0218 11.1346 24.0006 11.2425 24.0075C17.7295 24.0156 24.2164 24.0156 30.7034 24.0075C30.8113 24 30.9193 24.0206 31.0168 24.0674C31.1144 24.1141 31.1981 24.1853 31.2599 24.2741C31.7229 24.8612 32.3155 25.3334 32.9912 25.6535C33.667 25.9737 34.4076 26.1333 35.1552 26.1198C35.903 26.1063 36.6375 25.92 37.3013 25.5754C37.9651 25.2309 38.5403 24.7375 38.9817 24.1338C39.051 24.0316 39.143 23.9469 39.2507 23.8864C39.3583 23.8259 39.4786 23.7914 39.6019 23.7854C40.4372 23.6983 41.2708 23.5938 42.107 23.5163C42.2935 23.5179 42.4774 23.4733 42.6424 23.3863C42.8074 23.2994 42.9481 23.1728 43.0521 23.018V18.3092C43.0175 18.2553 42.9935 18.1953 42.9815 18.1323ZM28.1242 9.89143C28.2479 9.8842 28.3718 9.9026 28.4881 9.94547C28.6044 9.98833 28.7107 10.0547 28.8001 10.1405C29.1938 10.5125 29.6084 10.8626 30.0135 11.2215L29.956 11.3086H27.0214C23.5608 11.3086 20.101 11.3043 16.6413 11.3165C16.3181 11.3165 16.1813 11.2468 16.2284 10.9071C16.2754 10.5674 16.0847 10.1388 16.3068 9.94891C16.494 9.78777 16.9165 9.89752 17.2397 9.89665L28.1277 9.88969L28.1242 9.89143ZM16.224 13.0463C16.2171 12.7659 16.3007 12.6979 16.5724 12.6979C18.7004 12.7084 20.8292 12.704 22.9572 12.704C25.0573 12.704 27.1582 12.7119 29.2583 12.6962C29.5797 12.6962 29.6651 12.7833 29.6503 13.096C29.7008 14.1862 29.6571 15.2788 29.5196 16.3615C29.3179 17.3072 28.802 18.1567 28.056 18.7718C27.3099 19.3869 26.3776 19.7313 25.4109 19.749C23.7594 19.7827 22.1073 19.7827 20.4547 19.749C19.3445 19.7194 18.2882 19.2647 17.5036 18.4787C16.7191 17.6927 16.2663 16.6355 16.2388 15.5253C16.2162 14.6996 16.2458 13.873 16.224 13.0463ZM6.87601 24.7043C6.42087 24.7045 5.97015 24.615 5.5497 24.4407C5.12924 24.2664 4.74732 24.0109 4.42578 23.6887C4.10416 23.3665 3.84928 22.984 3.67574 22.5631C3.50221 22.1422 3.41343 21.6911 3.41449 21.2359C3.41366 20.7807 3.50281 20.3298 3.67681 19.9091C3.8508 19.4885 4.10623 19.1064 4.42839 18.7847C4.75059 18.4632 5.13315 18.2085 5.55408 18.0353C5.97502 17.862 6.42605 17.7736 6.88125 17.7752C7.33652 17.7743 7.78748 17.8634 8.20825 18.0372C8.62902 18.2111 9.01133 18.4663 9.33323 18.7882C9.65502 19.1102 9.91006 19.4925 10.0837 19.9133C10.2574 20.3341 10.3464 20.785 10.3454 21.2402C10.3451 21.6955 10.2552 22.1464 10.0807 22.567C9.90623 22.9875 9.65062 23.3696 9.32845 23.6914C9.00628 24.0131 8.62386 24.2683 8.20307 24.4423C7.78227 24.6162 7.33134 24.7056 6.87601 24.7052V24.7043ZM35.0568 24.7043C34.6016 24.703 34.1512 24.6118 33.7313 24.436C33.3115 24.2603 32.9304 24.0033 32.6101 23.68C32.2896 23.3567 32.0362 22.9732 31.8643 22.5517C31.6924 22.1302 31.6054 21.6789 31.6084 21.2237C31.6088 20.7685 31.6991 20.318 31.8743 19.8979C32.0495 19.4779 32.3061 19.0966 32.6292 18.776C32.9523 18.4556 33.3356 18.2022 33.757 18.0305C34.1784 17.8587 34.6296 17.772 35.0847 17.7752C35.5397 17.7756 35.9901 17.866 36.41 18.0412C36.8299 18.2165 37.2111 18.473 37.5314 18.7961C37.8518 19.1192 38.1051 19.5025 38.2767 19.9239C38.4483 20.3453 38.5349 20.7965 38.5314 21.2515C38.5312 21.7069 38.441 22.1577 38.2659 22.5781C38.0909 22.9984 37.8344 23.38 37.5114 23.7009C37.1885 24.0219 36.8053 24.2758 36.3839 24.4482C35.9625 24.6205 35.5112 24.7079 35.0559 24.7052L35.0568 24.7043ZM41.3283 22.1853C40.9229 22.2094 40.5193 22.2568 40.1193 22.3273C39.878 22.3665 39.8319 22.2916 39.8737 22.066C39.983 21.4271 39.9643 20.7728 39.8186 20.1412C39.673 19.5096 39.4033 18.9132 39.0253 18.3867C38.6474 17.8601 38.1687 17.4139 37.6169 17.0739C37.0652 16.7338 36.4513 16.5068 35.8111 16.4059C34.5517 16.2296 33.2728 16.5454 32.2402 17.2878C31.2077 18.0301 30.5009 19.1418 30.267 20.3918C30.1574 21.1196 30.1938 21.8619 30.3741 22.5755H11.584C11.8024 21.8104 11.8288 21.0032 11.6607 20.2254C11.4927 19.4477 11.1355 18.7234 10.6206 18.1167C10.2253 17.6225 9.73355 17.214 9.17528 16.916C8.61702 16.618 8.00395 16.4367 7.37339 16.3833C6.71414 16.3177 6.0484 16.3865 5.4165 16.5855C4.78459 16.7845 4.19962 17.1096 3.69693 17.5412C3.19424 17.9727 2.78429 18.5017 2.49186 19.0962C2.19943 19.6906 2.03059 20.3382 1.99557 20.9998C1.84531 20.8721 1.72457 20.7132 1.64171 20.5343C1.55884 20.3553 1.51583 20.1605 1.51563 19.9633C1.47469 18.8422 1.46163 17.7221 1.41807 16.6011C1.40414 16.2526 1.51474 16.1438 1.87013 16.1655C2.38753 16.2013 2.90667 16.1838 3.42494 16.1716C3.94321 16.1594 4.2298 15.8842 4.22283 15.4495C4.21586 15.0149 3.92318 14.7701 3.39969 14.764C3.17583 14.764 2.9511 14.764 2.72724 14.764H1.98948C2.46984 13.7198 3.0448 12.7218 3.70716 11.7824C4.30696 10.8864 4.95691 10.0251 5.65393 9.20243C5.78957 9.05364 5.8943 8.87939 5.96204 8.68978C6.02978 8.50018 6.05917 8.29901 6.04851 8.09795C6.02586 7.25739 6.23927 7.0588 7.07809 7.0588H21.5801C23.2071 7.13694 24.7882 7.62373 26.1774 8.47424H25.7419H9.39158C9.23916 8.44921 9.08278 8.46688 8.93979 8.52531C8.7968 8.58373 8.6728 8.68062 8.58152 8.80523C8.5074 8.90894 8.46595 9.03244 8.46253 9.15986C8.45912 9.28729 8.49389 9.41283 8.56235 9.52035C8.96252 10.2531 9.50444 10.8989 10.1566 11.4202C10.8087 11.9415 11.5581 12.3279 12.361 12.5568C13.0483 12.6976 13.7514 12.745 14.4514 12.6979C14.7537 12.6883 14.8173 12.7894 14.8199 13.0751C14.7853 14.0831 14.8019 15.0922 14.8696 16.0985C15.035 17.4656 15.6843 18.7283 16.6999 19.6583C17.7155 20.5883 19.0304 21.1241 20.4068 21.1688C22.0879 21.1932 23.7693 21.1932 25.451 21.1688C26.9001 21.127 28.28 20.5399 29.3149 19.5248C30.3499 18.5097 30.9636 17.1414 31.0335 15.6934C31.0648 14.8119 31.0413 13.9287 31.0492 13.0455C31.0492 12.9305 30.9812 12.7746 31.145 12.7153C31.2064 12.6995 31.2711 12.702 31.3311 12.7224C31.3911 12.7428 31.4439 12.7803 31.4829 12.8303C31.9077 13.2173 32.4053 13.516 32.9466 13.7089C33.488 13.9018 34.0623 13.9851 34.6361 13.954C35.7259 13.8599 36.8233 13.9102 37.8999 14.1038C38.9962 14.3968 39.9594 15.0557 40.6297 15.9713C40.4259 15.9913 40.2683 16 40.1123 16.0253C39.9443 16.0489 39.791 16.1341 39.6822 16.2643C39.5735 16.3945 39.5169 16.5604 39.5235 16.73C39.526 16.9 39.5925 17.0628 39.7097 17.186C39.8269 17.3091 39.9862 17.3836 40.1559 17.3946C40.4066 17.4254 40.66 17.4272 40.9111 17.3998C41.3109 17.3423 41.4607 17.527 41.5095 17.8858C41.5717 18.2021 41.6118 18.5222 41.6297 18.844C41.6297 19.8387 41.6297 20.8334 41.6401 21.8282C41.6401 22.0703 41.5887 22.1766 41.3222 22.187L41.3283 22.1853ZM13.6501 11.2973C13.0729 11.2996 12.5023 11.1754 11.9783 10.9334C11.4543 10.6914 10.9897 10.3375 10.6171 9.89665C12.0108 9.89665 13.3113 9.89665 14.6109 9.89665C14.7798 9.89665 14.8391 9.95762 14.819 10.1162C14.8182 10.1301 14.8182 10.144 14.819 10.158C14.7624 11.6152 15.1431 11.3034 13.6501 11.3025V11.2973Z" fill="black"/>
<path d="M35.0532 18.7956C34.7314 18.7961 34.4129 18.8604 34.1161 18.9848C33.8194 19.1092 33.5502 19.2912 33.3242 19.5203C33.0978 19.7498 32.9192 20.022 32.7988 20.321C32.6784 20.6201 32.6187 20.9401 32.623 21.2624C32.6283 21.9121 32.8911 22.5332 33.3537 22.9894C33.8163 23.4457 34.441 23.6998 35.0907 23.6961C35.4126 23.6943 35.7309 23.6288 36.0273 23.5034C36.3238 23.3779 36.5925 23.1951 36.8179 22.9653C37.0434 22.7353 37.221 22.463 37.3406 22.1639C37.4602 21.8649 37.5194 21.5452 37.5148 21.2232C37.5147 20.9016 37.4506 20.5831 37.3263 20.2865C37.2021 19.9898 37.0201 19.7208 36.7909 19.4951C36.562 19.2692 36.2906 19.0911 35.9922 18.971C35.6939 18.8509 35.3747 18.7913 35.0532 18.7956ZM35.0532 22.2728C34.9171 22.2726 34.7824 22.2451 34.6572 22.1918C34.5319 22.1385 34.4187 22.0606 34.3242 21.9627C34.2296 21.8648 34.1556 21.7489 34.1066 21.6219C34.0577 21.4949 34.0348 21.3593 34.0393 21.2232C34.0405 21.0871 34.0686 20.9526 34.1221 20.8274C34.1757 20.7023 34.2535 20.589 34.3512 20.4942C34.4488 20.3993 34.5643 20.3247 34.6909 20.2747C34.8175 20.2248 34.9528 20.2005 35.0889 20.2032C35.2251 20.2057 35.3595 20.2351 35.4843 20.2897C35.6091 20.3442 35.7219 20.4229 35.8162 20.5212C35.9106 20.6194 35.9847 20.7353 36.0341 20.8622C36.0836 20.9891 36.1076 21.1245 36.1046 21.2607C36.1042 21.3968 36.0764 21.5315 36.023 21.6567C35.9696 21.782 35.8916 21.8952 35.7936 21.9897C35.6955 22.0843 35.5794 22.1581 35.4523 22.2069C35.3251 22.2557 35.1893 22.2775 35.0532 22.2728Z" fill="black"/>
<path d="M6.88113 18.7955C6.5593 18.7929 6.24016 18.8543 5.94228 18.9762C5.6444 19.0981 5.37373 19.2779 5.14601 19.5054C4.9184 19.7329 4.73827 20.0034 4.6161 20.3011C4.49393 20.5988 4.43218 20.9178 4.43438 21.2396C4.43287 21.5614 4.49503 21.8803 4.61732 22.178C4.73961 22.4756 4.91959 22.7461 5.14689 22.9739C5.37385 23.202 5.6437 23.3829 5.9409 23.5062C6.23809 23.6295 6.55676 23.6928 6.87852 23.6925C7.52843 23.6909 8.15129 23.4322 8.61117 22.973C9.07105 22.5138 9.33058 21.8913 9.33311 21.2414C9.33371 20.9195 9.2706 20.6007 9.14741 20.3034C9.02423 20.006 8.8434 19.736 8.61537 19.5089C8.38767 19.2814 8.1172 19.1013 7.81956 18.9788C7.52191 18.8564 7.20297 18.7941 6.88113 18.7955ZM6.88113 22.2727C6.74486 22.274 6.60968 22.2484 6.48336 22.1973C6.35703 22.1461 6.24207 22.0705 6.1451 21.9748C6.04826 21.8791 5.97132 21.7652 5.9187 21.6396C5.86608 21.514 5.83883 21.3793 5.8385 21.2431C5.83964 20.9677 5.94943 20.7039 6.14401 20.509C6.33859 20.3141 6.60224 20.2038 6.87765 20.2022C7.01376 20.2014 7.14865 20.2277 7.27454 20.2794C7.40044 20.3311 7.51482 20.4073 7.61105 20.5036C7.70725 20.6 7.78336 20.7146 7.83495 20.8406C7.88653 20.9667 7.91257 21.1017 7.91156 21.2379C7.91368 21.3741 7.88849 21.5093 7.83747 21.6355C7.78646 21.7618 7.71065 21.8766 7.61453 21.973C7.5184 22.0693 7.40401 22.1453 7.27805 22.1966C7.15209 22.2479 7.01713 22.2743 6.88113 22.2727Z" fill="black"/>
</svg>
