<svg width="40" height="36" viewBox="0 0 40 36" fill="none" xmlns="http://www.w3.org/2000/svg">
<path d="M7.37408 28.4461C7.66846 28.1852 7.92609 27.7871 8.26618 27.699C8.63972 27.602 8.81358 28.1183 9.07116 28.3613C10.5367 29.8182 12.2911 30.952 14.2213 31.6898C16.1515 32.4276 18.2149 32.7532 20.2785 32.6454C22.2134 32.5815 24.1162 32.133 25.876 31.3261C27.6357 30.5191 29.2171 29.3699 30.5281 27.9454C30.8225 27.6388 30.9741 27.6265 31.2718 27.9142C31.8572 28.4717 31.8817 28.4595 31.2952 29.0504C28.7173 31.6838 25.3281 33.3727 21.6734 33.8452C19.0309 34.1715 16.3486 33.8506 13.8576 32.9101C11.3666 31.9695 9.14152 30.4376 7.37408 28.4461Z" fill="black"/>
<path d="M20.2173 1.31435C23.9176 1.42324 27.4651 2.81464 30.2527 5.25049C30.4445 5.41217 30.5159 5.51699 30.2974 5.71435C30.0565 5.93736 29.8736 6.32874 29.616 6.37446C29.4153 6.41126 29.1433 6.02656 28.898 5.83366C26.1714 3.68948 22.7861 2.55616 19.3181 2.6265C15.8502 2.69684 12.5137 3.9665 9.87629 6.21948C9.64436 6.41907 9.54189 6.41237 9.34898 6.18267C8.71118 5.43893 8.69996 5.44674 9.4738 4.84461C12.5387 2.46032 16.3356 1.21269 20.2173 1.31435Z" fill="black"/>
<path d="M31.9297 16.0523C31.8895 15.691 31.8091 15.5461 31.3877 15.6476C30.5726 15.8449 30.5782 15.8115 30.6641 16.6578C30.8072 18.0983 30.6554 19.5529 30.218 20.9329C29.1389 20.0888 27.8797 19.5047 26.5383 19.2258C26.6681 19.1355 26.7921 19.0371 26.9096 18.9314C28.0135 17.8184 28.6672 16.3368 28.745 14.7711C28.8134 13.6499 28.5912 12.5301 28.1 11.5199C27.6087 10.5098 26.8648 9.64361 25.9406 9.00517C25.0165 8.36686 23.9432 7.9779 22.8247 7.87593C21.7062 7.77396 20.5803 7.96243 19.5559 8.42311C19.4657 8.4739 19.362 8.4958 19.2589 8.48583C19.1558 8.47586 19.0583 8.4345 18.9795 8.36735C18.636 8.12748 18.2446 7.96489 17.8323 7.89078C17.42 7.81667 16.9966 7.8328 16.5911 7.93806C16.1853 8.04305 15.807 8.23478 15.4824 8.50005C15.1579 8.76532 14.8947 9.09782 14.7111 9.47462C14.6719 9.59048 14.5927 9.68854 14.4876 9.7511C14.3825 9.81366 14.2584 9.83662 14.1379 9.81582C13.6846 9.80112 13.2341 9.89233 12.8222 10.0822C12.4103 10.2721 12.0484 10.5554 11.7651 10.9097C11.4818 11.2639 11.2849 11.6794 11.1902 12.1231C11.0955 12.5667 11.1058 13.0263 11.2199 13.4654C11.3002 13.7798 11.2934 13.9315 10.9723 14.0809C10.6463 14.2246 10.3636 14.4513 10.1525 14.7383C9.94136 15.0253 9.80925 15.3627 9.76917 15.7167C9.68767 16.2676 9.51345 16.8007 9.25397 17.2934C9.07937 17.619 8.99184 17.9842 8.99985 18.3537C9.00786 18.7231 9.11115 19.0842 9.29971 19.4019C9.53091 19.8332 9.68206 20.3028 9.74575 20.788C9.78584 21.1691 9.92514 21.533 10.1497 21.8435C10.3743 22.154 10.6764 22.4002 11.0258 22.5575C11.415 22.7231 11.7663 22.9663 12.0583 23.2723C12.3608 23.6357 12.7622 23.9036 13.2138 24.0436C13.6654 24.1835 14.1479 24.1894 14.6029 24.0606C14.9529 23.9779 15.3194 23.9973 15.6588 24.1164C15.622 24.1978 15.5852 24.2691 15.5562 24.3394C15.4362 24.5857 15.3754 24.8566 15.3787 25.1306C15.382 25.4045 15.4493 25.6739 15.5753 25.9172C15.7011 26.1605 15.8821 26.3709 16.1038 26.5318C16.3255 26.6927 16.5816 26.7995 16.8519 26.8438C17.4715 26.9576 18.1114 26.8581 18.6672 26.5617C19.8213 26.0074 21.0884 25.729 22.3685 25.7483C23.6485 25.7677 24.9065 26.0843 26.0433 26.6732C25.9095 26.7736 25.827 26.8416 25.7389 26.8962C23.4955 28.4159 20.763 29.0375 18.0829 28.6379C16.5971 28.4322 15.1684 27.9276 13.8831 27.1545C12.5977 26.3814 11.4824 25.3559 10.6044 24.1398C9.72621 22.9239 9.10353 21.5426 8.7739 20.0794C8.44427 18.6162 8.41443 17.1014 8.68638 15.6264C9.13445 13.2068 10.3727 11.0042 12.207 9.36389C14.0412 7.72355 16.3679 6.73815 18.8223 6.56209C21.2011 6.39064 23.5718 6.9904 25.5829 8.27245C27.5941 9.5545 29.1385 11.4506 29.9872 13.6795C30.0987 13.9638 30.0987 14.402 30.3463 14.4912C30.5938 14.5804 30.9317 14.3541 31.2383 14.2894C31.4959 14.2348 31.5283 14.1266 31.4525 13.878C30.5093 10.9416 28.5103 8.45948 25.8424 6.91213C23.1745 5.36478 20.0274 4.86221 17.0103 5.50167C13.9119 6.16916 11.186 7.99598 9.39077 10.608C7.59554 13.22 6.86684 16.4195 7.35395 19.5513C7.79628 22.3762 9.20004 24.9618 11.3281 26.8715C13.4561 28.7811 16.178 29.8978 19.0341 30.0329C20.9773 30.1494 22.9198 29.7939 24.6959 28.9968C26.4719 28.1998 28.0287 26.9848 29.2334 25.4556C30.3088 24.16 31.1038 22.6553 31.5679 21.0368C32.032 19.4182 32.1552 17.7209 31.9297 16.0523ZM20.1268 9.95408C20.042 9.67532 20.1101 9.58611 20.3499 9.49022C21.571 9.03138 22.9192 9.04322 24.1321 9.52343C25.345 10.0036 26.3359 10.9179 26.9119 12.0883C27.4804 13.2541 27.5955 14.5895 27.2347 15.8353C26.8739 17.0811 26.0629 18.1484 24.9594 18.8299C24.8412 18.922 24.6966 18.9736 24.5468 18.9771C23.3508 18.9115 22.1516 19.017 20.9854 19.2904C20.9286 19.295 20.8716 19.295 20.8148 19.2904C21.4259 18.2033 20.8037 17.2956 20.361 16.2909C21.8563 17.2142 23.0069 17.1952 23.9893 16.2909C24.4007 15.9091 24.6784 15.405 24.7812 14.8532C24.884 14.3014 24.8066 13.7311 24.5603 13.2268C24.3113 12.7238 23.9076 12.3139 23.4085 12.0572C22.9094 11.8006 22.3411 11.7106 21.7871 11.8006C21.1793 11.905 20.6272 12.2184 20.2259 12.6867C19.8246 13.1549 19.5995 13.7486 19.5894 14.3652L18.3037 13.6237C18.3739 13.4765 18.5134 13.4721 18.6182 13.4197C19.2411 13.1163 19.7349 12.6004 20.011 11.9649C20.287 11.3295 20.3269 10.6163 20.1235 9.95408H20.1268ZM20.9162 14.3853C20.9162 14.0415 21.0516 13.7115 21.293 13.4667C21.5345 13.2219 21.8626 13.082 22.2063 13.0773C22.3801 13.0759 22.5524 13.1091 22.7132 13.175C22.874 13.2408 23.0202 13.338 23.1431 13.4609C23.2659 13.5838 23.3631 13.7299 23.4289 13.8907C23.4948 14.0515 23.528 14.2238 23.5266 14.3976C23.5208 14.7413 23.3802 15.069 23.1352 15.31C22.8901 15.5511 22.5602 15.6863 22.2164 15.6866C21.8733 15.6817 21.5459 15.5428 21.3038 15.2997C21.0617 15.0565 20.9242 14.7284 20.9207 14.3853H20.9162ZM17.3426 9.1557C17.7749 9.16304 18.1868 9.341 18.4884 9.65077C18.79 9.96054 18.9568 10.377 18.9527 10.8093C18.9456 11.2416 18.7678 11.6535 18.4579 11.955C18.148 12.2565 17.7313 12.4231 17.299 12.4184C16.8666 12.4113 16.4546 12.2334 16.1529 11.9236C15.8512 11.6138 15.6844 11.1972 15.6889 10.7647C15.6951 10.332 15.8728 9.91935 16.1831 9.61762C16.4934 9.31589 16.9098 9.14974 17.3426 9.1557ZM14.0687 11.1126C14.2851 11.1126 14.4178 11.1528 14.4624 11.4048C14.5732 12.0413 14.9157 12.6144 15.4236 13.0138C15.4646 13.037 15.4999 13.069 15.5269 13.1076C15.554 13.1462 15.5719 13.1903 15.5796 13.2368C15.588 13.2824 15.5863 13.3294 15.5746 13.3743C15.5628 13.4192 15.5414 13.4609 15.5117 13.4966C15.3879 13.7461 15.2016 13.9593 14.971 14.1156C14.7405 14.2719 14.4735 14.366 14.1959 14.3887C13.9705 14.4015 13.7449 14.3687 13.5326 14.292C13.3203 14.2153 13.1255 14.0965 12.9604 13.9426C12.7951 13.7894 12.6625 13.6043 12.5705 13.3985C12.4786 13.1927 12.4291 12.9704 12.4252 12.7451C12.4299 12.3116 12.6055 11.8975 12.914 11.5928C13.2224 11.2881 13.6386 11.1176 14.0721 11.1182L14.0687 11.1126ZM13.8602 22.8207C13.7376 22.8338 13.6137 22.8162 13.4997 22.7695C13.3856 22.7228 13.285 22.6484 13.2069 22.5531C12.7397 22.0574 12.1842 21.6532 11.5689 21.3611C11.4248 21.2978 11.3003 21.1971 11.2083 21.0695C11.1163 20.9418 11.0603 20.7919 11.0459 20.6352C10.9679 19.9866 10.7653 19.3592 10.4493 18.7875C10.3585 18.6355 10.3114 18.4614 10.3132 18.2844C10.315 18.1073 10.3656 17.9342 10.4594 17.784C10.7631 17.2217 10.9619 16.6089 11.0459 15.9754C11.1129 15.7349 11.2412 15.516 11.4183 15.3401C11.5954 15.1641 11.8153 15.0372 12.0562 14.9718C12.1677 14.9584 12.2233 15.0454 12.298 15.0989C12.6292 15.3509 13.0107 15.5288 13.4166 15.6205C13.8225 15.7123 14.2434 15.7158 14.6508 15.6308C15.0581 15.5459 15.4425 15.3743 15.7778 15.1279C16.1131 14.8815 16.3916 14.5658 16.5943 14.2024C16.7371 13.9638 16.8173 13.9605 16.9902 14.1534C17.4076 14.6027 17.9107 14.964 18.4699 15.216C18.6214 15.2796 18.7531 15.3826 18.8511 15.5144C18.9492 15.6463 19.01 15.802 19.0274 15.9653C19.1064 16.6137 19.309 17.2409 19.624 17.813C19.703 17.9619 19.7453 18.1275 19.7474 18.296C19.7496 18.4645 19.7114 18.6311 19.6362 18.782C19.533 19.1322 19.3541 19.4555 19.1121 19.729C18.87 20.0024 18.5709 20.2193 18.2357 20.3642C17.8691 20.5222 17.5566 20.7839 17.3367 21.1171C17.1168 21.4503 16.9992 21.8405 16.9981 22.2398C16.9769 22.5843 16.6345 22.8374 16.116 22.8263C15.3709 22.6911 14.6076 22.6911 13.8625 22.8263L13.8602 22.8207ZM27.7214 25.1846C27.6752 25.3191 27.5823 25.4326 27.4595 25.5044C27.3368 25.5762 27.1923 25.6016 27.0524 25.576C26.8016 25.5747 26.5558 25.5058 26.341 25.3764C25.0586 24.7567 23.6529 24.4348 22.2287 24.4348C20.8045 24.4348 19.3987 24.7567 18.1164 25.3764C17.8311 25.5378 17.5021 25.605 17.1764 25.5682C16.7304 25.4901 16.5843 25.1879 16.7906 24.7999C16.9938 24.5334 17.2578 24.3196 17.5606 24.1762C17.8635 24.0328 18.1964 23.9641 18.5313 23.9759C18.9841 24.0962 19.4649 24.0507 19.8871 23.8477C22.0425 22.6356 24.1655 23.163 26.2875 23.9291C26.7194 24.0515 27.1209 24.2631 27.4661 24.5501C27.6411 24.7241 27.8285 24.9482 27.7214 25.188V25.1846ZM29.3259 22.4081C29.1999 22.6702 28.9324 22.7159 28.6269 22.7136C28.4073 22.7019 28.1939 22.6372 28.0047 22.5252C26.7135 21.8915 25.2947 21.561 23.8565 21.5589C22.4182 21.5567 20.9984 21.883 19.7054 22.5129C19.4436 22.6605 19.1443 22.728 18.8446 22.707C18.3395 22.64 18.1755 22.2977 18.4398 21.8707C18.5759 21.6637 18.7697 21.5012 18.9973 21.4035C20.5025 20.6476 22.1634 20.2539 23.8477 20.2539C25.532 20.2539 27.193 20.6476 28.6982 21.4035C28.8602 21.4754 29.005 21.5811 29.123 21.7134C29.2936 21.9142 29.4576 22.1372 29.3338 22.4092L29.3259 22.4081Z" fill="black"/>
<path d="M38.254 0C37.9719 0 37.8938 0.0613386 37.896 0.352368C37.9105 2.31152 37.8961 4.27179 37.9095 6.23094C37.9095 6.47736 37.8604 6.56545 37.5995 6.54761C37.1646 6.5226 36.7286 6.5226 36.2937 6.54761C36.0094 6.56433 35.9336 6.48628 35.9358 6.19636C35.9514 4.45465 35.9436 2.71293 35.9436 0.971215C35.9436 0.00223254 35.9436 0.0145036 34.9869 0.00112295C34.7037 0.00112295 34.6278 0.0646825 34.6301 0.354597C34.6445 2.31375 34.6301 4.27402 34.6435 6.23317C34.6435 6.48071 34.5911 6.56767 34.3324 6.54871C33.8975 6.52369 33.4615 6.52369 33.0266 6.54871C32.7412 6.56656 32.6665 6.48516 32.6698 6.19636C32.6854 4.45465 32.6776 2.71293 32.6776 0.971215C32.6776 -0.00668785 32.6776 0.00336095 31.6741 0.0022459C31.4243 0.0022459 31.3585 0.0602273 31.3596 0.31446C31.3697 3.81238 31.3597 7.30919 31.3697 10.806C31.3665 11.2863 31.5185 11.7547 31.803 12.1416C32.0874 12.5286 32.4892 12.8134 32.9486 12.9536C33.1883 13.0272 33.2664 13.1097 33.2575 13.3628C33.1534 16.6002 33.056 19.8372 32.9653 23.0738C32.8694 26.2153 32.7739 29.3572 32.6787 32.4994C32.6687 32.6897 32.6778 32.8806 32.7055 33.0692C32.8082 33.7277 33.1576 34.3225 33.6827 34.733C34.2078 35.1434 34.8695 35.3387 35.5333 35.2792C36.1906 35.217 36.7998 34.9079 37.2381 34.4141C37.6764 33.9203 37.9112 33.2787 37.895 32.6187C37.8805 31.4222 37.8336 30.2247 37.7957 29.0282C37.7656 28.0804 37.7623 28.0971 36.8122 28.0983C36.4833 28.0983 36.4442 28.2098 36.4565 28.503C36.5145 29.8902 36.568 31.2773 36.587 32.6644C36.5907 32.8385 36.5592 33.0115 36.4942 33.1731C36.4292 33.3347 36.3322 33.4814 36.209 33.6044C36.0859 33.7274 35.9391 33.8242 35.7776 33.889C35.616 33.9538 35.443 33.9852 35.269 33.9813C34.9251 33.9757 34.5973 33.8348 34.3567 33.5891C34.116 33.3434 33.9819 33.0128 33.9834 32.6689C33.9834 32.3154 33.9967 31.9619 34.0079 31.6084C34.1878 25.7604 34.3673 19.9115 34.5465 14.062C34.5766 13.0751 34.5676 13.0997 35.55 13.0584C35.9659 13.0428 36.0206 13.1866 36.0306 13.5557C36.1384 17.6509 36.2584 21.7451 36.3908 25.838C36.422 26.8282 36.4376 26.8171 37.4233 26.7914C37.6808 26.7847 37.7378 26.7067 37.7288 26.4569C37.6575 24.4989 37.5995 22.5397 37.5404 20.5817C37.466 18.1746 37.395 15.7672 37.3274 13.3595C37.3274 13.2123 37.2638 13.0651 37.5058 12.9781C38.0337 12.8471 38.4966 12.5302 38.8099 12.0857C39.1232 11.6411 39.2659 11.0985 39.2118 10.5573V0.96788C39.2107 0.00112787 39.2107 0.0133806 38.254 0ZM37.9005 10.7369C37.9088 10.8734 37.8881 11.0101 37.8399 11.1381C37.7917 11.266 37.7169 11.3824 37.6206 11.4795C37.5241 11.5766 37.4081 11.6521 37.2803 11.7011C37.1525 11.7501 37.0158 11.7715 36.8791 11.7638C35.8198 11.7742 34.7602 11.7742 33.7001 11.7638C33.5634 11.7715 33.4267 11.7501 33.2989 11.7011C33.1711 11.6521 33.0551 11.5766 32.9586 11.4795C32.8623 11.3824 32.7875 11.2661 32.7393 11.1381C32.6911 11.0101 32.6704 10.8734 32.6787 10.7369C32.6687 9.86713 32.6855 8.9985 32.671 8.12875C32.671 7.89125 32.7445 7.83884 32.9653 7.84218C33.738 7.85556 34.5141 7.84218 35.288 7.84218C36.0618 7.84218 36.8368 7.84999 37.6106 7.84218C37.8336 7.84218 37.9117 7.89013 37.9072 8.12875C37.8961 8.99738 37.9105 9.86489 37.896 10.7357L37.9005 10.7369Z" fill="black"/>
<path d="M7.20124 10.5727C7.93307 8.93716 8.19821 7.13106 7.96729 5.35421C7.86771 3.82451 7.29795 2.36294 6.33596 1.16943C6.06975 0.811878 5.72413 0.520999 5.3264 0.319694C4.92868 0.118388 4.48969 0.0121449 4.04394 0.00933459C3.59818 0.00652427 3.15789 0.107222 2.75766 0.303496C2.35742 0.499771 2.00818 0.78627 1.73748 1.14043C1.36946 1.55948 1.06552 2.03067 0.835449 2.53871C0.0587668 4.30556 -0.183504 6.26119 0.138544 8.16416C0.291433 9.59344 0.880794 10.9409 1.82663 12.0234C1.87423 12.0803 1.90892 12.1468 1.92817 12.2185C1.94743 12.2901 1.9509 12.3651 1.93825 12.4382C1.89811 13.6357 1.85674 14.8322 1.82663 16.0286C1.79987 16.9931 1.80443 16.9809 2.78678 17.0043C3.05886 17.011 3.1212 16.9329 3.12789 16.6698C3.14461 15.5402 3.19155 14.4118 3.21051 13.2823C3.21051 13.0302 3.26505 12.931 3.53378 13.0135C3.89746 13.093 4.27399 13.093 4.63767 13.0135C4.6477 13.1161 4.66114 13.2098 4.66448 13.3023C4.82802 18.662 4.9908 24.0217 5.15286 29.3814C5.18519 30.4697 5.22643 31.558 5.24092 32.6463C5.2454 32.8202 5.21488 32.9933 5.15109 33.1551C5.0873 33.317 4.99154 33.4644 4.8696 33.5885C4.74749 33.7126 4.60164 33.8109 4.44071 33.8773C4.27978 33.9438 4.10711 33.9772 3.933 33.9754C3.75925 33.974 3.58755 33.938 3.42788 33.8694C3.26821 33.8009 3.12379 33.7012 3.00307 33.5763C2.88217 33.4513 2.78735 33.3036 2.72417 33.1416C2.66099 32.9796 2.63077 32.8067 2.63515 32.6329C2.63515 32.2794 2.65068 31.926 2.66183 31.5714C2.78746 27.4494 2.9131 23.3278 3.03873 19.2065C3.06549 18.3056 3.05429 18.3145 2.14664 18.2844C1.82885 18.2721 1.7397 18.3524 1.7319 18.6769C1.66834 21.2482 1.58142 23.8184 1.50894 26.3897C1.4465 28.4983 1.36621 30.6057 1.33499 32.7165C1.33903 33.3572 1.58075 33.9736 2.01338 34.4462C2.44601 34.9188 3.03871 35.214 3.67656 35.2745C4.31195 35.3362 4.94798 35.1642 5.46565 34.7906C5.98332 34.4171 6.34707 33.8675 6.48868 33.2451C6.56432 32.7886 6.5804 32.3242 6.5366 31.8635C6.34407 25.443 6.14787 19.0225 5.9479 12.6021C5.9388 12.5161 5.95017 12.4292 5.98098 12.3484C6.01178 12.2676 6.06122 12.1952 6.12526 12.1371C6.58313 11.69 6.95232 11.1603 7.21349 10.576L7.20124 10.5727ZM5.17736 11.2306C5.03521 11.3981 4.85828 11.5327 4.6589 11.625C4.45951 11.7173 4.24256 11.7651 4.02284 11.7651C3.80312 11.7651 3.58602 11.7173 3.38664 11.625C3.18725 11.5327 3.01033 11.3981 2.86818 11.2306C2.47285 10.8538 2.16527 10.3947 1.96724 9.88581C1.0832 7.75026 1.08119 5.35146 1.96166 3.21443C2.15001 2.73145 2.43453 2.29178 2.79795 1.92209C2.94198 1.73346 3.12749 1.58058 3.34022 1.47536C3.55296 1.37014 3.78714 1.31539 4.02447 1.31539C4.2618 1.31539 4.49585 1.37014 4.70858 1.47536C4.92131 1.58058 5.10697 1.73346 5.251 1.92209C5.92412 2.67686 6.36917 3.60717 6.53442 4.6049C6.66893 5.2019 6.73178 5.8128 6.72171 6.42467C6.76681 7.70666 6.50613 8.98097 5.96124 10.1423C5.76797 10.548 5.50368 10.9158 5.18076 11.2283L5.17736 11.2306Z" fill="black"/>
<path d="M17.9712 17.8296C17.7549 18.1418 17.5396 18.4696 17.3021 18.7818C17.243 18.8599 17.1583 18.755 17.097 18.7138C16.5662 18.3637 16.04 18.0035 15.5036 17.6612C15.3431 17.5586 15.3664 17.4828 15.4523 17.3423C16.0098 16.419 16.0043 16.4168 16.8863 17.0078C17.1907 17.2107 17.4962 17.4125 17.7973 17.6177C17.8686 17.6645 17.979 17.6879 17.9712 17.8296Z" fill="black"/>
<path d="M13.6427 17.3648C13.4676 17.8866 13.2714 18.4642 13.0851 19.043C13.0561 19.131 12.996 19.1333 12.9268 19.1165C12.8744 19.1043 12.8242 19.0797 12.7729 19.0652C11.7972 18.7675 11.7972 18.7675 12.1161 17.8097C12.1284 17.7729 12.1485 17.7361 12.1608 17.6982C12.4953 16.7002 12.5711 16.6712 13.5278 17.1407C13.6058 17.1808 13.675 17.1987 13.6427 17.3648Z" fill="black"/>
<path d="M16.0805 19.6631C16.2558 19.9349 16.3777 20.2377 16.4396 20.5551C16.4808 20.6666 16.6314 20.8339 16.4396 20.9041C15.8687 21.1182 15.2855 21.2978 14.7056 21.4884C14.6904 21.4959 14.6736 21.4998 14.6566 21.4998C14.6396 21.4998 14.6229 21.4959 14.6076 21.4884C14.5926 21.4805 14.5794 21.4693 14.5694 21.4556C14.5593 21.4418 14.5526 21.426 14.5496 21.4093C14.5395 21.3714 14.5272 21.3342 14.5128 21.2978C14.1281 20.3232 14.1281 20.3232 15.1171 19.992L16.0805 19.6631Z" fill="black"/>
</svg>
